# xmcd
#
# Track frame offsets:
#	150
#	17058
#	38166
#	46587
#	62243
#	78008
#	100460
#	120607
#	134856
#	149244
#	166011
#
# Disc length: 2457 seconds
#
# Revision: 0
# Processed by: cddbd v1.5.2PL0 Copyright (c) Steve Scherf et al.
# Submitted via: EasyCDDAExtractor 15.3.0.1
#
DISCID=9609970b
DTITLE=Arthur Adams and Will Jennings - Soul Of The Blues
DYEAR=2000
DGENRE=Blues
TTITLE0=Twenty Years Gone
TTITLE1=Good Night In The City
TTITLE2=Soul Of The Blues
TTITLE3=Gonna Catch You Tonight
TTITLE4=Lovin You Big Time
TTITLE5=If I Did Not Have You
TTITLE6=Thank You Pretty Baby
TTITLE7=You Help My Soul
TTITLE8=Thumbs Up
TTITLE9=Look For Me
TTITLE10=I Like The Party Life
EXTD=
EXTT0=
EXTT1=
EXTT2=
EXTT3=
EXTT4=
EXTT5=
EXTT6=
EXTT7=
EXTT8=
EXTT9=
EXTT10=
PLAYORDER=
